<svg xmlns="http://www.w3.org/2000/svg" xmlns:xlink="http://www.w3.org/1999/xlink" width="500" zoomAndPan="magnify" viewBox="0 0 375 374.999991" height="500" preserveAspectRatio="xMidYMid meet" version="1.0"><path fill="#ff5757" d="M 375 192.1875 C 375 175.6875 365.4375 161.625 351.65625 154.6875 C 354.46875 148.96875 356.25 142.6875 356.25 135.9375 C 356.25 113.34375 338.4375 95.0625 316.125 93.9375 C 319.875 83.53125 320.4375 71.53125 312.28125 58.21875 C 308.71875 52.40625 303.84375 47.53125 298.03125 43.96875 C 284.71875 35.8125 272.71875 36.375 262.3125 40.125 C 261.1875 17.8125 242.90625 0 220.3125 0 C 212.25 0 204.75 2.34375 198.375 6.28125 C 197.90625 6.5625 197.34375 6.84375 196.875 7.03125 C 193.96875 8.625 190.6875 9.375 187.5 9.375 C 184.3125 9.375 181.03125 8.625 178.125 7.03125 C 177.65625 6.84375 177.09375 6.5625 176.625 6.28125 C 170.25 2.34375 162.75 0 154.6875 0 C 132.09375 0 113.8125 17.8125 112.6875 40.125 C 102.28125 36.375 90.28125 35.8125 76.96875 43.96875 C 71.15625 47.53125 66.28125 52.40625 62.71875 58.21875 C 54.5625 71.53125 55.125 83.53125 58.875 93.9375 C 36.5625 95.0625 18.75 113.34375 18.75 135.9375 C 18.75 142.6875 20.53125 148.96875 23.34375 154.6875 C 9.5625 161.625 0 175.6875 0 192.1875 C 0 205.6875 6.46875 217.59375 16.3125 225.28125 C 12 231.9375 9.375 239.90625 9.375 248.4375 C 9.375 263.71875 17.53125 276.9375 29.71875 284.34375 C 28.78125 287.90625 28.125 291.46875 28.125 295.3125 C 28.125 318.65625 46.96875 337.5 70.3125 337.5 C 73.40625 337.5 76.40625 337.125 79.3125 336.46875 C 88.21875 359.0625 110.25 375 135.9375 375 C 150.84375 375 164.4375 369.65625 175.03125 360.75 C 175.96875 359.90625 177 359.25 178.125 358.6875 C 181.03125 357 184.21875 356.25 187.5 356.25 C 190.78125 356.25 193.96875 357 196.875 358.6875 C 198 359.25 199.03125 359.90625 199.96875 360.75 C 210.5625 369.65625 224.15625 375 239.0625 375 C 264.75 375 286.78125 359.0625 295.6875 336.46875 C 298.59375 337.125 301.59375 337.5 304.6875 337.5 C 328.03125 337.5 346.875 318.65625 346.875 295.3125 C 346.875 291.46875 346.21875 287.90625 345.28125 284.34375 C 357.46875 276.9375 365.625 263.71875 365.625 248.4375 C 365.625 239.90625 363 231.9375 358.6875 225.28125 C 368.53125 217.59375 375 205.6875 375 192.1875 Z M 375 192.1875 " fill-opacity="1" fill-rule="nonzero"/><path fill="#ff914d" d="M 112.5 75 L 262.5 75 L 262.5 93.75 L 112.5 93.75 Z M 150 309.375 L 131.25 309.375 L 131.25 271.875 L 56.25 271.875 L 56.25 215.625 L 75 215.625 L 75 253.125 L 150 253.125 Z M 150 309.375 " fill-opacity="1" fill-rule="nonzero"/><path fill="#ffbd59" d="M 112.5 65.625 C 111.886719 65.625 111.273438 65.65625 110.664062 65.714844 C 110.050781 65.777344 109.445312 65.867188 108.84375 65.984375 C 108.238281 66.105469 107.644531 66.253906 107.058594 66.433594 C 106.46875 66.609375 105.890625 66.816406 105.324219 67.050781 C 104.757812 67.289062 104.203125 67.550781 103.660156 67.839844 C 103.121094 68.128906 102.59375 68.445312 102.082031 68.785156 C 101.574219 69.125 101.078125 69.492188 100.605469 69.882812 C 100.128906 70.269531 99.675781 70.683594 99.242188 71.117188 C 98.808594 71.550781 98.394531 72.003906 98.007812 72.480469 C 97.617188 72.953125 97.25 73.449219 96.910156 73.957031 C 96.570312 74.46875 96.253906 74.996094 95.964844 75.535156 C 95.675781 76.078125 95.414062 76.632812 95.175781 77.199219 C 94.941406 77.765625 94.734375 78.34375 94.558594 78.933594 C 94.378906 79.519531 94.230469 80.113281 94.109375 80.71875 C 93.992188 81.320312 93.902344 81.925781 93.839844 82.539062 C 93.78125 83.148438 93.75 83.761719 93.75 84.375 C 93.75 84.988281 93.78125 85.601562 93.839844 86.210938 C 93.902344 86.824219 93.992188 87.429688 94.109375 88.03125 C 94.230469 88.636719 94.378906 89.230469 94.558594 89.816406 C 94.734375 90.40625 94.941406 90.984375 95.175781 91.550781 C 95.414062 92.117188 95.675781 92.671875 95.964844 93.214844 C 96.253906 93.753906 96.570312 94.28125 96.910156 94.792969 C 97.25 95.300781 97.617188 95.796875 98.007812 96.269531 C 98.394531 96.746094 98.808594 97.199219 99.242188 97.632812 C 99.675781 98.066406 100.128906 98.480469 100.605469 98.867188 C 101.078125 99.257812 101.574219 99.625 102.082031 99.964844 C 102.59375 100.304688 103.121094 100.621094 103.660156 100.910156 C 104.203125 101.199219 104.757812 101.460938 105.324219 101.699219 C 105.890625 101.933594 106.46875 102.140625 107.058594 102.316406 C 107.644531 102.496094 108.238281 102.644531 108.84375 102.765625 C 109.445312 102.882812 110.050781 102.972656 110.664062 103.035156 C 111.273438 103.09375 111.886719 103.125 112.5 103.125 C 113.113281 103.125 113.726562 103.09375 114.335938 103.035156 C 114.949219 102.972656 115.554688 102.882812 116.15625 102.765625 C 116.761719 102.644531 117.355469 102.496094 117.941406 102.316406 C 118.53125 102.140625 119.109375 101.933594 119.675781 101.699219 C 120.242188 101.460938 120.796875 101.199219 121.339844 100.910156 C 121.878906 100.621094 122.40625 100.304688 122.917969 99.964844 C 123.425781 99.625 123.921875 99.257812 124.394531 98.867188 C 124.871094 98.480469 125.324219 98.066406 125.757812 97.632812 C 126.191406 97.199219 126.605469 96.746094 126.992188 96.269531 C 127.382812 95.796875 127.75 95.300781 128.089844 94.792969 C 128.429688 94.28125 128.746094 93.753906 129.035156 93.214844 C 129.324219 92.671875 129.585938 92.117188 129.824219 91.550781 C 130.058594 90.984375 130.265625 90.40625 130.441406 89.816406 C 130.621094 89.230469 130.769531 88.636719 130.890625 88.03125 C 131.007812 87.429688 131.097656 86.824219 131.160156 86.210938 C 131.21875 85.601562 131.25 84.988281 131.25 84.375 C 131.25 83.761719 131.21875 83.148438 131.160156 82.539062 C 131.097656 81.925781 131.007812 81.320312 130.890625 80.71875 C 130.769531 80.113281 130.621094 79.519531 130.441406 78.933594 C 130.265625 78.34375 130.058594 77.765625 129.824219 77.199219 C 129.585938 76.632812 129.324219 76.078125 129.035156 75.535156 C 128.746094 74.996094 128.429688 74.46875 128.089844 73.957031 C 127.75 73.449219 127.382812 72.953125 126.992188 72.480469 C 126.605469 72.003906 126.191406 71.550781 125.757812 71.117188 C 125.324219 70.683594 124.871094 70.269531 124.394531 69.882812 C 123.921875 69.492188 123.425781 69.125 122.917969 68.785156 C 122.40625 68.445312 121.878906 68.128906 121.339844 67.839844 C 120.796875 67.550781 120.242188 67.289062 119.675781 67.050781 C 119.109375 66.816406 118.53125 66.609375 117.941406 66.433594 C 117.355469 66.253906 116.761719 66.105469 116.15625 65.984375 C 115.554688 65.867188 114.949219 65.777344 114.335938 65.714844 C 113.726562 65.65625 113.113281 65.625 112.5 65.625 Z M 65.625 196.875 C 65.011719 196.875 64.398438 196.90625 63.789062 196.964844 C 63.175781 197.027344 62.570312 197.117188 61.96875 197.234375 C 61.363281 197.355469 60.769531 197.503906 60.183594 197.683594 C 59.59375 197.859375 59.015625 198.066406 58.449219 198.300781 C 57.882812 198.539062 57.328125 198.800781 56.785156 199.089844 C 56.246094 199.378906 55.71875 199.695312 55.207031 200.035156 C 54.699219 200.375 54.203125 200.742188 53.730469 201.132812 C 53.253906 201.519531 52.800781 201.933594 52.367188 202.367188 C 51.933594 202.800781 51.519531 203.253906 51.132812 203.730469 C 50.742188 204.203125 50.375 204.699219 50.035156 205.207031 C 49.695312 205.71875 49.378906 206.246094 49.089844 206.785156 C 48.800781 207.328125 48.539062 207.882812 48.300781 208.449219 C 48.066406 209.015625 47.859375 209.59375 47.683594 210.183594 C 47.503906 210.769531 47.355469 211.363281 47.234375 211.96875 C 47.117188 212.570312 47.027344 213.175781 46.964844 213.789062 C 46.90625 214.398438 46.875 215.011719 46.875 215.625 C 46.875 216.238281 46.90625 216.851562 46.964844 217.460938 C 47.027344 218.074219 47.117188 218.679688 47.234375 219.28125 C 47.355469 219.886719 47.503906 220.480469 47.683594 221.066406 C 47.859375 221.65625 48.066406 222.234375 48.300781 222.800781 C 48.539062 223.367188 48.800781 223.921875 49.089844 224.464844 C 49.378906 225.003906 49.695312 225.53125 50.035156 226.042969 C 50.375 226.550781 50.742188 227.046875 51.132812 227.519531 C 51.519531 227.996094 51.933594 228.449219 52.367188 228.882812 C 52.800781 229.316406 53.253906 229.730469 53.730469 230.117188 C 54.203125 230.507812 54.699219 230.875 55.207031 231.214844 C 55.71875 231.554688 56.246094 231.871094 56.785156 232.160156 C 57.328125 232.449219 57.882812 232.710938 58.449219 232.949219 C 59.015625 233.183594 59.59375 233.390625 60.183594 233.566406 C 60.769531 233.746094 61.363281 233.894531 61.96875 234.015625 C 62.570312 234.132812 63.175781 234.222656 63.789062 234.285156 C 64.398438 234.34375 65.011719 234.375 65.625 234.375 C 66.238281 234.375 66.851562 234.34375 67.460938 234.285156 C 68.074219 234.222656 68.679688 234.132812 69.28125 234.015625 C 69.886719 233.894531 70.480469 233.746094 71.066406 233.566406 C 71.65625 233.390625 72.234375 233.183594 72.800781 232.949219 C 73.367188 232.710938 73.921875 232.449219 74.464844 232.160156 C 75.003906 231.871094 75.53125 231.554688 76.042969 231.214844 C 76.550781 230.875 77.046875 230.507812 77.519531 230.117188 C 77.996094 229.730469 78.449219 229.316406 78.882812 228.882812 C 79.316406 228.449219 79.730469 227.996094 80.117188 227.519531 C 80.507812 227.046875 80.875 226.550781 81.214844 226.042969 C 81.554688 225.53125 81.871094 225.003906 82.160156 224.464844 C 82.449219 223.921875 82.710938 223.367188 82.949219 222.800781 C 83.183594 222.234375 83.390625 221.65625 83.566406 221.066406 C 83.746094 220.480469 83.894531 219.886719 84.015625 219.28125 C 84.132812 218.679688 84.222656 218.074219 84.285156 217.460938 C 84.34375 216.851562 84.375 216.238281 84.375 215.625 C 84.375 215.011719 84.34375 214.398438 84.285156 213.789062 C 84.222656 213.175781 84.132812 212.570312 84.015625 211.96875 C 83.894531 211.363281 83.746094 210.769531 83.566406 210.183594 C 83.390625 209.59375 83.183594 209.015625 82.949219 208.449219 C 82.710938 207.882812 82.449219 207.328125 82.160156 206.785156 C 81.871094 206.246094 81.554688 205.71875 81.214844 205.207031 C 80.875 204.699219 80.507812 204.203125 80.117188 203.730469 C 79.730469 203.253906 79.316406 202.800781 78.882812 202.367188 C 78.449219 201.933594 77.996094 201.519531 77.519531 201.132812 C 77.046875 200.742188 76.550781 200.375 76.042969 200.035156 C 75.53125 199.695312 75.003906 199.378906 74.464844 199.089844 C 73.921875 198.800781 73.367188 198.539062 72.800781 198.300781 C 72.234375 198.066406 71.65625 197.859375 71.066406 197.683594 C 70.480469 197.503906 69.886719 197.355469 69.28125 197.234375 C 68.679688 197.117188 68.074219 197.027344 67.460938 196.964844 C 66.851562 196.90625 66.238281 196.875 65.625 196.875 Z M 140.625 290.625 C 140.011719 290.625 139.398438 290.65625 138.789062 290.714844 C 138.175781 290.777344 137.570312 290.867188 136.96875 290.984375 C 136.363281 291.105469 135.769531 291.253906 135.183594 291.433594 C 134.59375 291.609375 134.015625 291.816406 133.449219 292.050781 C 132.882812 292.289062 132.328125 292.550781 131.785156 292.839844 C 131.246094 293.128906 130.71875 293.445312 130.207031 293.785156 C 129.699219 294.125 129.203125 294.492188 128.730469 294.882812 C 128.253906 295.269531 127.800781 295.683594 127.367188 296.117188 C 126.933594 296.550781 126.519531 297.003906 126.132812 297.480469 C 125.742188 297.953125 125.375 298.449219 125.035156 298.957031 C 124.695312 299.46875 124.378906 299.996094 124.089844 300.535156 C 123.800781 301.078125 123.539062 301.632812 123.300781 302.199219 C 123.066406 302.765625 122.859375 303.34375 122.683594 303.933594 C 122.503906 304.519531 122.355469 305.113281 122.234375 305.71875 C 122.117188 306.320312 122.027344 306.925781 121.964844 307.539062 C 121.90625 308.148438 121.875 308.761719 121.875 309.375 C 121.875 309.988281 121.90625 310.601562 121.964844 311.210938 C 122.027344 311.824219 122.117188 312.429688 122.234375 313.03125 C 122.355469 313.636719 122.503906 314.230469 122.683594 314.816406 C 122.859375 315.40625 123.066406 315.984375 123.300781 316.550781 C 123.539062 317.117188 123.800781 317.671875 124.089844 318.214844 C 124.378906 318.753906 124.695312 319.28125 125.035156 319.792969 C 125.375 320.300781 125.742188 320.796875 126.132812 321.269531 C 126.519531 321.746094 126.933594 322.199219 127.367188 322.632812 C 127.800781 323.066406 128.253906 323.480469 128.730469 323.867188 C 129.203125 324.257812 129.699219 324.625 130.207031 324.964844 C 130.71875 325.304688 131.246094 325.621094 131.785156 325.910156 C 132.328125 326.199219 132.882812 326.460938 133.449219 326.699219 C 134.015625 326.933594 134.59375 327.140625 135.183594 327.316406 C 135.769531 327.496094 136.363281 327.644531 136.96875 327.765625 C 137.570312 327.882812 138.175781 327.972656 138.789062 328.035156 C 139.398438 328.09375 140.011719 328.125 140.625 328.125 C 141.238281 328.125 141.851562 328.09375 142.460938 328.035156 C 143.074219 327.972656 143.679688 327.882812 144.28125 327.765625 C 144.886719 327.644531 145.480469 327.496094 146.066406 327.316406 C 146.65625 327.140625 147.234375 326.933594 147.800781 326.699219 C 148.367188 326.460938 148.921875 326.199219 149.464844 325.910156 C 150.003906 325.621094 150.53125 325.304688 151.042969 324.964844 C 151.550781 324.625 152.046875 324.257812 152.519531 323.867188 C 152.996094 323.480469 153.449219 323.066406 153.882812 322.632812 C 154.316406 322.199219 154.730469 321.746094 155.117188 321.269531 C 155.507812 320.796875 155.875 320.300781 156.214844 319.792969 C 156.554688 319.28125 156.871094 318.753906 157.160156 318.214844 C 157.449219 317.671875 157.710938 317.117188 157.949219 316.550781 C 158.183594 315.984375 158.390625 315.40625 158.566406 314.816406 C 158.746094 314.230469 158.894531 313.636719 159.015625 313.03125 C 159.132812 312.429688 159.222656 311.824219 159.285156 311.210938 C 159.34375 310.601562 159.375 309.988281 159.375 309.375 C 159.375 308.761719 159.34375 308.148438 159.285156 307.539062 C 159.222656 306.925781 159.132812 306.320312 159.015625 305.71875 C 158.894531 305.113281 158.746094 304.519531 158.566406 303.933594 C 158.390625 303.34375 158.183594 302.765625 157.949219 302.199219 C 157.710938 301.632812 157.449219 301.078125 157.160156 300.535156 C 156.871094 299.996094 156.554688 299.46875 156.214844 298.957031 C 155.875 298.449219 155.507812 297.953125 155.117188 297.480469 C 154.730469 297.003906 154.316406 296.550781 153.882812 296.117188 C 153.449219 295.683594 152.996094 295.269531 152.519531 294.882812 C 152.046875 294.492188 151.550781 294.125 151.042969 293.785156 C 150.53125 293.445312 150.003906 293.128906 149.464844 292.839844 C 148.921875 292.550781 148.367188 292.289062 147.800781 292.050781 C 147.234375 291.816406 146.65625 291.609375 146.066406 291.433594 C 145.480469 291.253906 144.886719 291.105469 144.28125 290.984375 C 143.679688 290.867188 143.074219 290.777344 142.460938 290.714844 C 141.851562 290.65625 141.238281 290.625 140.625 290.625 Z M 140.625 290.625 " fill-opacity="1" fill-rule="nonzero"/><path fill="#ff914d" d="M 243.75 309.375 L 225 309.375 L 225 253.125 L 300 253.125 L 300 215.625 L 318.75 215.625 L 318.75 271.875 L 243.75 271.875 Z M 243.75 309.375 " fill-opacity="1" fill-rule="nonzero"/><path fill="#ffbd59" d="M 309.375 196.875 C 308.761719 196.875 308.148438 196.90625 307.539062 196.964844 C 306.925781 197.027344 306.320312 197.117188 305.71875 197.234375 C 305.113281 197.355469 304.519531 197.503906 303.933594 197.683594 C 303.34375 197.859375 302.765625 198.066406 302.199219 198.300781 C 301.632812 198.539062 301.078125 198.800781 300.535156 199.089844 C 299.996094 199.378906 299.46875 199.695312 298.957031 200.035156 C 298.449219 200.375 297.953125 200.742188 297.480469 201.132812 C 297.003906 201.519531 296.550781 201.933594 296.117188 202.367188 C 295.683594 202.800781 295.269531 203.253906 294.882812 203.730469 C 294.492188 204.203125 294.125 204.699219 293.785156 205.207031 C 293.445312 205.71875 293.128906 206.246094 292.839844 206.785156 C 292.550781 207.328125 292.289062 207.882812 292.050781 208.449219 C 291.816406 209.015625 291.609375 209.59375 291.433594 210.183594 C 291.253906 210.769531 291.105469 211.363281 290.984375 211.96875 C 290.867188 212.570312 290.777344 213.175781 290.714844 213.789062 C 290.65625 214.398438 290.625 215.011719 290.625 215.625 C 290.625 216.238281 290.65625 216.851562 290.714844 217.460938 C 290.777344 218.074219 290.867188 218.679688 290.984375 219.28125 C 291.105469 219.886719 291.253906 220.480469 291.433594 221.066406 C 291.609375 221.65625 291.816406 222.234375 292.050781 222.800781 C 292.289062 223.367188 292.550781 223.921875 292.839844 224.464844 C 293.128906 225.003906 293.445312 225.53125 293.785156 226.042969 C 294.125 226.550781 294.492188 227.046875 294.882812 227.519531 C 295.269531 227.996094 295.683594 228.449219 296.117188 228.882812 C 296.550781 229.316406 297.003906 229.730469 297.480469 230.117188 C 297.953125 230.507812 298.449219 230.875 298.957031 231.214844 C 299.46875 231.554688 299.996094 231.871094 300.535156 232.160156 C 301.078125 232.449219 301.632812 232.710938 302.199219 232.949219 C 302.765625 233.183594 303.34375 233.390625 303.933594 233.566406 C 304.519531 233.746094 305.113281 233.894531 305.71875 234.015625 C 306.320312 234.132812 306.925781 234.222656 307.539062 234.285156 C 308.148438 234.34375 308.761719 234.375 309.375 234.375 C 309.988281 234.375 310.601562 234.34375 311.210938 234.285156 C 311.824219 234.222656 312.429688 234.132812 313.03125 234.015625 C 313.636719 233.894531 314.230469 233.746094 314.816406 233.566406 C 315.40625 233.390625 315.984375 233.183594 316.550781 232.949219 C 317.117188 232.710938 317.671875 232.449219 318.214844 232.160156 C 318.753906 231.871094 319.28125 231.554688 319.792969 231.214844 C 320.300781 230.875 320.796875 230.507812 321.269531 230.117188 C 321.746094 229.730469 322.199219 229.316406 322.632812 228.882812 C 323.066406 228.449219 323.480469 227.996094 323.867188 227.519531 C 324.257812 227.046875 324.625 226.550781 324.964844 226.042969 C 325.304688 225.53125 325.621094 225.003906 325.910156 224.464844 C 326.199219 223.921875 326.460938 223.367188 326.699219 222.800781 C 326.933594 222.234375 327.140625 221.65625 327.316406 221.066406 C 327.496094 220.480469 327.644531 219.886719 327.765625 219.28125 C 327.882812 218.679688 327.972656 218.074219 328.035156 217.460938 C 328.09375 216.851562 328.125 216.238281 328.125 215.625 C 328.125 215.011719 328.09375 214.398438 328.035156 213.789062 C 327.972656 213.175781 327.882812 212.570312 327.765625 211.96875 C 327.644531 211.363281 327.496094 210.769531 327.316406 210.183594 C 327.140625 209.59375 326.933594 209.015625 326.699219 208.449219 C 326.460938 207.882812 326.199219 207.328125 325.910156 206.785156 C 325.621094 206.246094 325.304688 205.71875 324.964844 205.207031 C 324.625 204.699219 324.257812 204.203125 323.867188 203.730469 C 323.480469 203.253906 323.066406 202.800781 322.632812 202.367188 C 322.199219 201.933594 321.746094 201.519531 321.269531 201.132812 C 320.796875 200.742188 320.300781 200.375 319.792969 200.035156 C 319.28125 199.695312 318.753906 199.378906 318.214844 199.089844 C 317.671875 198.800781 317.117188 198.539062 316.550781 198.300781 C 315.984375 198.066406 315.40625 197.859375 314.816406 197.683594 C 314.230469 197.503906 313.636719 197.355469 313.03125 197.234375 C 312.429688 197.117188 311.824219 197.027344 311.210938 196.964844 C 310.601562 196.90625 309.988281 196.875 309.375 196.875 Z M 234.375 290.625 C 233.761719 290.625 233.148438 290.65625 232.539062 290.714844 C 231.925781 290.777344 231.320312 290.867188 230.71875 290.984375 C 230.113281 291.105469 229.519531 291.253906 228.933594 291.433594 C 228.34375 291.609375 227.765625 291.816406 227.199219 292.050781 C 226.632812 292.289062 226.078125 292.550781 225.535156 292.839844 C 224.996094 293.128906 224.46875 293.445312 223.957031 293.785156 C 223.449219 294.125 222.953125 294.492188 222.480469 294.882812 C 222.003906 295.269531 221.550781 295.683594 221.117188 296.117188 C 220.683594 296.550781 220.269531 297.003906 219.882812 297.480469 C 219.492188 297.953125 219.125 298.449219 218.785156 298.957031 C 218.445312 299.46875 218.128906 299.996094 217.839844 300.535156 C 217.550781 301.078125 217.289062 301.632812 217.050781 302.199219 C 216.816406 302.765625 216.609375 303.34375 216.433594 303.933594 C 216.253906 304.519531 216.105469 305.113281 215.984375 305.71875 C 215.867188 306.320312 215.777344 306.925781 215.714844 307.539062 C 215.65625 308.148438 215.625 308.761719 215.625 309.375 C 215.625 309.988281 215.65625 310.601562 215.714844 311.210938 C 215.777344 311.824219 215.867188 312.429688 215.984375 313.03125 C 216.105469 313.636719 216.253906 314.230469 216.433594 314.816406 C 216.609375 315.40625 216.816406 315.984375 217.050781 316.550781 C 217.289062 317.117188 217.550781 317.671875 217.839844 318.214844 C 218.128906 318.753906 218.445312 319.28125 218.785156 319.792969 C 219.125 320.300781 219.492188 320.796875 219.882812 321.269531 C 220.269531 321.746094 220.683594 322.199219 221.117188 322.632812 C 221.550781 323.066406 222.003906 323.480469 222.480469 323.867188 C 222.953125 324.257812 223.449219 324.625 223.957031 324.964844 C 224.46875 325.304688 224.996094 325.621094 225.535156 325.910156 C 226.078125 326.199219 226.632812 326.460938 227.199219 326.699219 C 227.765625 326.933594 228.34375 327.140625 228.933594 327.316406 C 229.519531 327.496094 230.113281 327.644531 230.71875 327.765625 C 231.320312 327.882812 231.925781 327.972656 232.539062 328.035156 C 233.148438 328.09375 233.761719 328.125 234.375 328.125 C 234.988281 328.125 235.601562 328.09375 236.210938 328.035156 C 236.824219 327.972656 237.429688 327.882812 238.03125 327.765625 C 238.636719 327.644531 239.230469 327.496094 239.816406 327.316406 C 240.40625 327.140625 240.984375 326.933594 241.550781 326.699219 C 242.117188 326.460938 242.671875 326.199219 243.214844 325.910156 C 243.753906 325.621094 244.28125 325.304688 244.792969 324.964844 C 245.300781 324.625 245.796875 324.257812 246.269531 323.867188 C 246.746094 323.480469 247.199219 323.066406 247.632812 322.632812 C 248.066406 322.199219 248.480469 321.746094 248.867188 321.269531 C 249.257812 320.796875 249.625 320.300781 249.964844 319.792969 C 250.304688 319.28125 250.621094 318.753906 250.910156 318.214844 C 251.199219 317.671875 251.460938 317.117188 251.699219 316.550781 C 251.933594 315.984375 252.140625 315.40625 252.316406 314.816406 C 252.496094 314.230469 252.644531 313.636719 252.765625 313.03125 C 252.882812 312.429688 252.972656 311.824219 253.035156 311.210938 C 253.09375 310.601562 253.125 309.988281 253.125 309.375 C 253.125 308.761719 253.09375 308.148438 253.035156 307.539062 C 252.972656 306.925781 252.882812 306.320312 252.765625 305.71875 C 252.644531 305.113281 252.496094 304.519531 252.316406 303.933594 C 252.140625 303.34375 251.933594 302.765625 251.699219 302.199219 C 251.460938 301.632812 251.199219 301.078125 250.910156 300.535156 C 250.621094 299.996094 250.304688 299.46875 249.964844 298.957031 C 249.625 298.449219 249.257812 297.953125 248.867188 297.480469 C 248.480469 297.003906 248.066406 296.550781 247.632812 296.117188 C 247.199219 295.683594 246.746094 295.269531 246.269531 294.882812 C 245.796875 294.492188 245.300781 294.125 244.792969 293.785156 C 244.28125 293.445312 243.753906 293.128906 243.214844 292.839844 C 242.671875 292.550781 242.117188 292.289062 241.550781 292.050781 C 240.984375 291.816406 240.40625 291.609375 239.816406 291.433594 C 239.230469 291.253906 238.636719 291.105469 238.03125 290.984375 C 237.429688 290.867188 236.824219 290.777344 236.210938 290.714844 C 235.601562 290.65625 234.988281 290.625 234.375 290.625 Z M 253.125 65.625 C 252.511719 65.625 251.898438 65.65625 251.289062 65.714844 C 250.675781 65.777344 250.070312 65.867188 249.46875 65.984375 C 248.863281 66.105469 248.269531 66.253906 247.683594 66.433594 C 247.09375 66.609375 246.515625 66.816406 245.949219 67.050781 C 245.382812 67.289062 244.828125 67.550781 244.285156 67.839844 C 243.746094 68.128906 243.21875 68.445312 242.707031 68.785156 C 242.199219 69.125 241.703125 69.492188 241.230469 69.882812 C 240.753906 70.269531 240.300781 70.683594 239.867188 71.117188 C 239.433594 71.550781 239.019531 72.003906 238.632812 72.480469 C 238.242188 72.953125 237.875 73.449219 237.535156 73.957031 C 237.195312 74.46875 236.878906 74.996094 236.589844 75.535156 C 236.300781 76.078125 236.039062 76.632812 235.800781 77.199219 C 235.566406 77.765625 235.359375 78.34375 235.183594 78.933594 C 235.003906 79.519531 234.855469 80.113281 234.734375 80.71875 C 234.617188 81.320312 234.527344 81.925781 234.464844 82.539062 C 234.40625 83.148438 234.375 83.761719 234.375 84.375 C 234.375 84.988281 234.40625 85.601562 234.464844 86.210938 C 234.527344 86.824219 234.617188 87.429688 234.734375 88.03125 C 234.855469 88.636719 235.003906 89.230469 235.183594 89.816406 C 235.359375 90.40625 235.566406 90.984375 235.800781 91.550781 C 236.039062 92.117188 236.300781 92.671875 236.589844 93.214844 C 236.878906 93.753906 237.195312 94.28125 237.535156 94.792969 C 237.875 95.300781 238.242188 95.796875 238.632812 96.269531 C 239.019531 96.746094 239.433594 97.199219 239.867188 97.632812 C 240.300781 98.066406 240.753906 98.480469 241.230469 98.867188 C 241.703125 99.257812 242.199219 99.625 242.707031 99.964844 C 243.21875 100.304688 243.746094 100.621094 244.285156 100.910156 C 244.828125 101.199219 245.382812 101.460938 245.949219 101.699219 C 246.515625 101.933594 247.09375 102.140625 247.683594 102.316406 C 248.269531 102.496094 248.863281 102.644531 249.46875 102.765625 C 250.070312 102.882812 250.675781 102.972656 251.289062 103.035156 C 251.898438 103.09375 252.511719 103.125 253.125 103.125 C 253.738281 103.125 254.351562 103.09375 254.960938 103.035156 C 255.574219 102.972656 256.179688 102.882812 256.78125 102.765625 C 257.386719 102.644531 257.980469 102.496094 258.566406 102.316406 C 259.15625 102.140625 259.734375 101.933594 260.300781 101.699219 C 260.867188 101.460938 261.421875 101.199219 261.964844 100.910156 C 262.503906 100.621094 263.03125 100.304688 263.542969 99.964844 C 264.050781 99.625 264.546875 99.257812 265.019531 98.867188 C 265.496094 98.480469 265.949219 98.066406 266.382812 97.632812 C 266.816406 97.199219 267.230469 96.746094 267.617188 96.269531 C 268.007812 95.796875 268.375 95.300781 268.714844 94.792969 C 269.054688 94.28125 269.371094 93.753906 269.660156 93.214844 C 269.949219 92.671875 270.210938 92.117188 270.449219 91.550781 C 270.683594 90.984375 270.890625 90.40625 271.066406 89.816406 C 271.246094 89.230469 271.394531 88.636719 271.515625 88.03125 C 271.632812 87.429688 271.722656 86.824219 271.785156 86.210938 C 271.84375 85.601562 271.875 84.988281 271.875 84.375 C 271.875 83.761719 271.84375 83.148438 271.785156 82.539062 C 271.722656 81.925781 271.632812 81.320312 271.515625 80.71875 C 271.394531 80.113281 271.246094 79.519531 271.066406 78.933594 C 270.890625 78.34375 270.683594 77.765625 270.449219 77.199219 C 270.210938 76.632812 269.949219 76.078125 269.660156 75.535156 C 269.371094 74.996094 269.054688 74.46875 268.714844 73.957031 C 268.375 73.449219 268.007812 72.953125 267.617188 72.480469 C 267.230469 72.003906 266.816406 71.550781 266.382812 71.117188 C 265.949219 70.683594 265.496094 70.269531 265.019531 69.882812 C 264.546875 69.492188 264.050781 69.125 263.542969 68.785156 C 263.03125 68.445312 262.503906 68.128906 261.964844 67.839844 C 261.421875 67.550781 260.867188 67.289062 260.300781 67.050781 C 259.734375 66.816406 259.15625 66.609375 258.566406 66.433594 C 257.980469 66.253906 257.386719 66.105469 256.78125 65.984375 C 256.179688 65.867188 255.574219 65.777344 254.960938 65.714844 C 254.351562 65.65625 253.738281 65.625 253.125 65.625 Z M 253.125 65.625 " fill-opacity="1" fill-rule="nonzero"/><path fill="#ffffff" d="M 196.875 7.03125 L 196.875 358.6875 C 193.96875 357 190.78125 356.25 187.5 356.25 C 184.21875 356.25 181.03125 357 178.125 358.6875 L 178.125 7.03125 C 181.03125 8.625 184.3125 9.375 187.5 9.375 C 190.6875 9.375 193.96875 8.625 196.875 7.03125 Z M 196.875 7.03125 " fill-opacity="1" fill-rule="nonzero"/><path fill="#ff914d" d="M 150 206.25 L 131.25 206.25 L 131.25 159.375 L 84.375 159.375 L 84.375 140.625 L 150 140.625 Z M 150 206.25 " fill-opacity="1" fill-rule="nonzero"/><path fill="#ffbd59" d="M 140.625 187.5 C 140.011719 187.5 139.398438 187.53125 138.789062 187.589844 C 138.175781 187.652344 137.570312 187.742188 136.96875 187.859375 C 136.363281 187.980469 135.769531 188.128906 135.183594 188.308594 C 134.59375 188.484375 134.015625 188.691406 133.449219 188.925781 C 132.882812 189.164062 132.328125 189.425781 131.785156 189.714844 C 131.246094 190.003906 130.71875 190.320312 130.207031 190.660156 C 129.699219 191 129.203125 191.367188 128.730469 191.757812 C 128.253906 192.144531 127.800781 192.558594 127.367188 192.992188 C 126.933594 193.425781 126.519531 193.878906 126.132812 194.355469 C 125.742188 194.828125 125.375 195.324219 125.035156 195.832031 C 124.695312 196.34375 124.378906 196.871094 124.089844 197.410156 C 123.800781 197.953125 123.539062 198.507812 123.300781 199.074219 C 123.066406 199.640625 122.859375 200.21875 122.683594 200.808594 C 122.503906 201.394531 122.355469 201.988281 122.234375 202.59375 C 122.117188 203.195312 122.027344 203.800781 121.964844 204.414062 C 121.90625 205.023438 121.875 205.636719 121.875 206.25 C 121.875 206.863281 121.90625 207.476562 121.964844 208.085938 C 122.027344 208.699219 122.117188 209.304688 122.234375 209.90625 C 122.355469 210.511719 122.503906 211.105469 122.683594 211.691406 C 122.859375 212.28125 123.066406 212.859375 123.300781 213.425781 C 123.539062 213.992188 123.800781 214.546875 124.089844 215.089844 C 124.378906 215.628906 124.695312 216.15625 125.035156 216.667969 C 125.375 217.175781 125.742188 217.671875 126.132812 218.144531 C 126.519531 218.621094 126.933594 219.074219 127.367188 219.507812 C 127.800781 219.941406 128.253906 220.355469 128.730469 220.742188 C 129.203125 221.132812 129.699219 221.5 130.207031 221.839844 C 130.71875 222.179688 131.246094 222.496094 131.785156 222.785156 C 132.328125 223.074219 132.882812 223.335938 133.449219 223.574219 C 134.015625 223.808594 134.59375 224.015625 135.183594 224.191406 C 135.769531 224.371094 136.363281 224.519531 136.96875 224.640625 C 137.570312 224.757812 138.175781 224.847656 138.789062 224.910156 C 139.398438 224.96875 140.011719 225 140.625 225 C 141.238281 225 141.851562 224.96875 142.460938 224.910156 C 143.074219 224.847656 143.679688 224.757812 144.28125 224.640625 C 144.886719 224.519531 145.480469 224.371094 146.066406 224.191406 C 146.65625 224.015625 147.234375 223.808594 147.800781 223.574219 C 148.367188 223.335938 148.921875 223.074219 149.464844 222.785156 C 150.003906 222.496094 150.53125 222.179688 151.042969 221.839844 C 151.550781 221.5 152.046875 221.132812 152.519531 220.742188 C 152.996094 220.355469 153.449219 219.941406 153.882812 219.507812 C 154.316406 219.074219 154.730469 218.621094 155.117188 218.144531 C 155.507812 217.671875 155.875 217.175781 156.214844 216.667969 C 156.554688 216.15625 156.871094 215.628906 157.160156 215.089844 C 157.449219 214.546875 157.710938 213.992188 157.949219 213.425781 C 158.183594 212.859375 158.390625 212.28125 158.566406 211.691406 C 158.746094 211.105469 158.894531 210.511719 159.015625 209.90625 C 159.132812 209.304688 159.222656 208.699219 159.285156 208.085938 C 159.34375 207.476562 159.375 206.863281 159.375 206.25 C 159.375 205.636719 159.34375 205.023438 159.285156 204.414062 C 159.222656 203.800781 159.132812 203.195312 159.015625 202.59375 C 158.894531 201.988281 158.746094 201.394531 158.566406 200.808594 C 158.390625 200.21875 158.183594 199.640625 157.949219 199.074219 C 157.710938 198.507812 157.449219 197.953125 157.160156 197.410156 C 156.871094 196.871094 156.554688 196.34375 156.214844 195.832031 C 155.875 195.324219 155.507812 194.828125 155.117188 194.355469 C 154.730469 193.878906 154.316406 193.425781 153.882812 192.992188 C 153.449219 192.558594 152.996094 192.144531 152.519531 191.757812 C 152.046875 191.367188 151.550781 191 151.042969 190.660156 C 150.53125 190.320312 150.003906 190.003906 149.464844 189.714844 C 148.921875 189.425781 148.367188 189.164062 147.800781 188.925781 C 147.234375 188.691406 146.65625 188.484375 146.066406 188.308594 C 145.480469 188.128906 144.886719 187.980469 144.28125 187.859375 C 143.679688 187.742188 143.074219 187.652344 142.460938 187.589844 C 141.851562 187.53125 141.238281 187.5 140.625 187.5 Z M 84.375 131.25 C 83.761719 131.25 83.148438 131.28125 82.539062 131.339844 C 81.925781 131.402344 81.320312 131.492188 80.71875 131.609375 C 80.113281 131.730469 79.519531 131.878906 78.933594 132.058594 C 78.34375 132.234375 77.765625 132.441406 77.199219 132.675781 C 76.632812 132.914062 76.078125 133.175781 75.535156 133.464844 C 74.996094 133.753906 74.46875 134.070312 73.957031 134.410156 C 73.449219 134.75 72.953125 135.117188 72.480469 135.507812 C 72.003906 135.894531 71.550781 136.308594 71.117188 136.742188 C 70.683594 137.175781 70.269531 137.628906 69.882812 138.105469 C 69.492188 138.578125 69.125 139.074219 68.785156 139.582031 C 68.445312 140.09375 68.128906 140.621094 67.839844 141.160156 C 67.550781 141.703125 67.289062 142.257812 67.050781 142.824219 C 66.816406 143.390625 66.609375 143.96875 66.433594 144.558594 C 66.253906 145.144531 66.105469 145.738281 65.984375 146.34375 C 65.867188 146.945312 65.777344 147.550781 65.714844 148.164062 C 65.65625 148.773438 65.625 149.386719 65.625 150 C 65.625 150.613281 65.65625 151.226562 65.714844 151.835938 C 65.777344 152.449219 65.867188 153.054688 65.984375 153.65625 C 66.105469 154.261719 66.253906 154.855469 66.433594 155.441406 C 66.609375 156.03125 66.816406 156.609375 67.050781 157.175781 C 67.289062 157.742188 67.550781 158.296875 67.839844 158.839844 C 68.128906 159.378906 68.445312 159.90625 68.785156 160.417969 C 69.125 160.925781 69.492188 161.421875 69.882812 161.894531 C 70.269531 162.371094 70.683594 162.824219 71.117188 163.257812 C 71.550781 163.691406 72.003906 164.105469 72.480469 164.492188 C 72.953125 164.882812 73.449219 165.25 73.957031 165.589844 C 74.46875 165.929688 74.996094 166.246094 75.535156 166.535156 C 76.078125 166.824219 76.632812 167.085938 77.199219 167.324219 C 77.765625 167.558594 78.34375 167.765625 78.933594 167.941406 C 79.519531 168.121094 80.113281 168.269531 80.71875 168.390625 C 81.320312 168.507812 81.925781 168.597656 82.539062 168.660156 C 83.148438 168.71875 83.761719 168.75 84.375 168.75 C 84.988281 168.75 85.601562 168.71875 86.210938 168.660156 C 86.824219 168.597656 87.429688 168.507812 88.03125 168.390625 C 88.636719 168.269531 89.230469 168.121094 89.816406 167.941406 C 90.40625 167.765625 90.984375 167.558594 91.550781 167.324219 C 92.117188 167.085938 92.671875 166.824219 93.214844 166.535156 C 93.753906 166.246094 94.28125 165.929688 94.792969 165.589844 C 95.300781 165.25 95.796875 164.882812 96.269531 164.492188 C 96.746094 164.105469 97.199219 163.691406 97.632812 163.257812 C 98.066406 162.824219 98.480469 162.371094 98.867188 161.894531 C 99.257812 161.421875 99.625 160.925781 99.964844 160.417969 C 100.304688 159.90625 100.621094 159.378906 100.910156 158.839844 C 101.199219 158.296875 101.460938 157.742188 101.699219 157.175781 C 101.933594 156.609375 102.140625 156.03125 102.316406 155.441406 C 102.496094 154.855469 102.644531 154.261719 102.765625 153.65625 C 102.882812 153.054688 102.972656 152.449219 103.035156 151.835938 C 103.09375 151.226562 103.125 150.613281 103.125 150 C 103.125 149.386719 103.09375 148.773438 103.035156 148.164062 C 102.972656 147.550781 102.882812 146.945312 102.765625 146.34375 C 102.644531 145.738281 102.496094 145.144531 102.316406 144.558594 C 102.140625 143.96875 101.933594 143.390625 101.699219 142.824219 C 101.460938 142.257812 101.199219 141.703125 100.910156 141.160156 C 100.621094 140.621094 100.304688 140.09375 99.964844 139.582031 C 99.625 139.074219 99.257812 138.578125 98.867188 138.105469 C 98.480469 137.628906 98.066406 137.175781 97.632812 136.742188 C 97.199219 136.308594 96.746094 135.894531 96.269531 135.507812 C 95.796875 135.117188 95.300781 134.75 94.792969 134.410156 C 94.28125 134.070312 93.753906 133.753906 93.214844 133.464844 C 92.671875 133.175781 92.117188 132.914062 91.550781 132.675781 C 90.984375 132.441406 90.40625 132.234375 89.816406 132.058594 C 89.230469 131.878906 88.636719 131.730469 88.03125 131.609375 C 87.429688 131.492188 86.824219 131.402344 86.210938 131.339844 C 85.601562 131.28125 84.988281 131.25 84.375 131.25 Z M 84.375 131.25 " fill-opacity="1" fill-rule="nonzero"/><path fill="#ff914d" d="M 243.75 206.25 L 225 206.25 L 225 140.625 L 290.625 140.625 L 290.625 159.375 L 243.75 159.375 Z M 243.75 206.25 " fill-opacity="1" fill-rule="nonzero"/><path fill="#ffbd59" d="M 234.375 187.5 C 233.761719 187.5 233.148438 187.53125 232.539062 187.589844 C 231.925781 187.652344 231.320312 187.742188 230.71875 187.859375 C 230.113281 187.980469 229.519531 188.128906 228.933594 188.308594 C 228.34375 188.484375 227.765625 188.691406 227.199219 188.925781 C 226.632812 189.164062 226.078125 189.425781 225.535156 189.714844 C 224.996094 190.003906 224.46875 190.320312 223.957031 190.660156 C 223.449219 191 222.953125 191.367188 222.480469 191.757812 C 222.003906 192.144531 221.550781 192.558594 221.117188 192.992188 C 220.683594 193.425781 220.269531 193.878906 219.882812 194.355469 C 219.492188 194.828125 219.125 195.324219 218.785156 195.832031 C 218.445312 196.34375 218.128906 196.871094 217.839844 197.410156 C 217.550781 197.953125 217.289062 198.507812 217.050781 199.074219 C 216.816406 199.640625 216.609375 200.21875 216.433594 200.808594 C 216.253906 201.394531 216.105469 201.988281 215.984375 202.59375 C 215.867188 203.195312 215.777344 203.800781 215.714844 204.414062 C 215.65625 205.023438 215.625 205.636719 215.625 206.25 C 215.625 206.863281 215.65625 207.476562 215.714844 208.085938 C 215.777344 208.699219 215.867188 209.304688 215.984375 209.90625 C 216.105469 210.511719 216.253906 211.105469 216.433594 211.691406 C 216.609375 212.28125 216.816406 212.859375 217.050781 213.425781 C 217.289062 213.992188 217.550781 214.546875 217.839844 215.089844 C 218.128906 215.628906 218.445312 216.15625 218.785156 216.667969 C 219.125 217.175781 219.492188 217.671875 219.882812 218.144531 C 220.269531 218.621094 220.683594 219.074219 221.117188 219.507812 C 221.550781 219.941406 222.003906 220.355469 222.480469 220.742188 C 222.953125 221.132812 223.449219 221.5 223.957031 221.839844 C 224.46875 222.179688 224.996094 222.496094 225.535156 222.785156 C 226.078125 223.074219 226.632812 223.335938 227.199219 223.574219 C 227.765625 223.808594 228.34375 224.015625 228.933594 224.191406 C 229.519531 224.371094 230.113281 224.519531 230.71875 224.640625 C 231.320312 224.757812 231.925781 224.847656 232.539062 224.910156 C 233.148438 224.96875 233.761719 225 234.375 225 C 234.988281 225 235.601562 224.96875 236.210938 224.910156 C 236.824219 224.847656 237.429688 224.757812 238.03125 224.640625 C 238.636719 224.519531 239.230469 224.371094 239.816406 224.191406 C 240.40625 224.015625 240.984375 223.808594 241.550781 223.574219 C 242.117188 223.335938 242.671875 223.074219 243.214844 222.785156 C 243.753906 222.496094 244.28125 222.179688 244.792969 221.839844 C 245.300781 221.5 245.796875 221.132812 246.269531 220.742188 C 246.746094 220.355469 247.199219 219.941406 247.632812 219.507812 C 248.066406 219.074219 248.480469 218.621094 248.867188 218.144531 C 249.257812 217.671875 249.625 217.175781 249.964844 216.667969 C 250.304688 216.15625 250.621094 215.628906 250.910156 215.089844 C 251.199219 214.546875 251.460938 213.992188 251.699219 213.425781 C 251.933594 212.859375 252.140625 212.28125 252.316406 211.691406 C 252.496094 211.105469 252.644531 210.511719 252.765625 209.90625 C 252.882812 209.304688 252.972656 208.699219 253.035156 208.085938 C 253.09375 207.476562 253.125 206.863281 253.125 206.25 C 253.125 205.636719 253.09375 205.023438 253.035156 204.414062 C 252.972656 203.800781 252.882812 203.195312 252.765625 202.59375 C 252.644531 201.988281 252.496094 201.394531 252.316406 200.808594 C 252.140625 200.21875 251.933594 199.640625 251.699219 199.074219 C 251.460938 198.507812 251.199219 197.953125 250.910156 197.410156 C 250.621094 196.871094 250.304688 196.34375 249.964844 195.832031 C 249.625 195.324219 249.257812 194.828125 248.867188 194.355469 C 248.480469 193.878906 248.066406 193.425781 247.632812 192.992188 C 247.199219 192.558594 246.746094 192.144531 246.269531 191.757812 C 245.796875 191.367188 245.300781 191 244.792969 190.660156 C 244.28125 190.320312 243.753906 190.003906 243.214844 189.714844 C 242.671875 189.425781 242.117188 189.164062 241.550781 188.925781 C 240.984375 188.691406 240.40625 188.484375 239.816406 188.308594 C 239.230469 188.128906 238.636719 187.980469 238.03125 187.859375 C 237.429688 187.742188 236.824219 187.652344 236.210938 187.589844 C 235.601562 187.53125 234.988281 187.5 234.375 187.5 Z M 290.625 131.25 C 290.011719 131.25 289.398438 131.28125 288.789062 131.339844 C 288.175781 131.402344 287.570312 131.492188 286.96875 131.609375 C 286.363281 131.730469 285.769531 131.878906 285.183594 132.058594 C 284.59375 132.234375 284.015625 132.441406 283.449219 132.675781 C 282.882812 132.914062 282.328125 133.175781 281.785156 133.464844 C 281.246094 133.753906 280.71875 134.070312 280.207031 134.410156 C 279.699219 134.75 279.203125 135.117188 278.730469 135.507812 C 278.253906 135.894531 277.800781 136.308594 277.367188 136.742188 C 276.933594 137.175781 276.519531 137.628906 276.132812 138.105469 C 275.742188 138.578125 275.375 139.074219 275.035156 139.582031 C 274.695312 140.09375 274.378906 140.621094 274.089844 141.160156 C 273.800781 141.703125 273.539062 142.257812 273.300781 142.824219 C 273.066406 143.390625 272.859375 143.96875 272.683594 144.558594 C 272.503906 145.144531 272.355469 145.738281 272.234375 146.34375 C 272.117188 146.945312 272.027344 147.550781 271.964844 148.164062 C 271.90625 148.773438 271.875 149.386719 271.875 150 C 271.875 150.613281 271.90625 151.226562 271.964844 151.835938 C 272.027344 152.449219 272.117188 153.054688 272.234375 153.65625 C 272.355469 154.261719 272.503906 154.855469 272.683594 155.441406 C 272.859375 156.03125 273.066406 156.609375 273.300781 157.175781 C 273.539062 157.742188 273.800781 158.296875 274.089844 158.839844 C 274.378906 159.378906 274.695312 159.90625 275.035156 160.417969 C 275.375 160.925781 275.742188 161.421875 276.132812 161.894531 C 276.519531 162.371094 276.933594 162.824219 277.367188 163.257812 C 277.800781 163.691406 278.253906 164.105469 278.730469 164.492188 C 279.203125 164.882812 279.699219 165.25 280.207031 165.589844 C 280.71875 165.929688 281.246094 166.246094 281.785156 166.535156 C 282.328125 166.824219 282.882812 167.085938 283.449219 167.324219 C 284.015625 167.558594 284.59375 167.765625 285.183594 167.941406 C 285.769531 168.121094 286.363281 168.269531 286.96875 168.390625 C 287.570312 168.507812 288.175781 168.597656 288.789062 168.660156 C 289.398438 168.71875 290.011719 168.75 290.625 168.75 C 291.238281 168.75 291.851562 168.71875 292.460938 168.660156 C 293.074219 168.597656 293.679688 168.507812 294.28125 168.390625 C 294.886719 168.269531 295.480469 168.121094 296.066406 167.941406 C 296.65625 167.765625 297.234375 167.558594 297.800781 167.324219 C 298.367188 167.085938 298.921875 166.824219 299.464844 166.535156 C 300.003906 166.246094 300.53125 165.929688 301.042969 165.589844 C 301.550781 165.25 302.046875 164.882812 302.519531 164.492188 C 302.996094 164.105469 303.449219 163.691406 303.882812 163.257812 C 304.316406 162.824219 304.730469 162.371094 305.117188 161.894531 C 305.507812 161.421875 305.875 160.925781 306.214844 160.417969 C 306.554688 159.90625 306.871094 159.378906 307.160156 158.839844 C 307.449219 158.296875 307.710938 157.742188 307.949219 157.175781 C 308.183594 156.609375 308.390625 156.03125 308.566406 155.441406 C 308.746094 154.855469 308.894531 154.261719 309.015625 153.65625 C 309.132812 153.054688 309.222656 152.449219 309.285156 151.835938 C 309.34375 151.226562 309.375 150.613281 309.375 150 C 309.375 149.386719 309.34375 148.773438 309.285156 148.164062 C 309.222656 147.550781 309.132812 146.945312 309.015625 146.34375 C 308.894531 145.738281 308.746094 145.144531 308.566406 144.558594 C 308.390625 143.96875 308.183594 143.390625 307.949219 142.824219 C 307.710938 142.257812 307.449219 141.703125 307.160156 141.160156 C 306.871094 140.621094 306.554688 140.09375 306.214844 139.582031 C 305.875 139.074219 305.507812 138.578125 305.117188 138.105469 C 304.730469 137.628906 304.316406 137.175781 303.882812 136.742188 C 303.449219 136.308594 302.996094 135.894531 302.519531 135.507812 C 302.046875 135.117188 301.550781 134.75 301.042969 134.410156 C 300.53125 134.070312 300.003906 133.753906 299.464844 133.464844 C 298.921875 133.175781 298.367188 132.914062 297.800781 132.675781 C 297.234375 132.441406 296.65625 132.234375 296.066406 132.058594 C 295.480469 131.878906 294.886719 131.730469 294.28125 131.609375 C 293.679688 131.492188 293.074219 131.402344 292.460938 131.339844 C 291.851562 131.28125 291.238281 131.25 290.625 131.25 Z M 290.625 131.25 " fill-opacity="1" fill-rule="nonzero"/></svg>